<!DOCTYPE svg PUBLIC "-//W3C//DTD SVG 1.1//EN" "http://www.w3.org/Graphics/SVG/1.1/DTD/svg11.dtd">
<!-- Uploaded to: SVG Repo, www.svgrepo.com, Transformed by: SVG Repo Mixer Tools -->
<svg height="100px" width="100px" version="1.1" id="Layer_1" xmlns="http://www.w3.org/2000/svg" xmlns:xlink="http://www.w3.org/1999/xlink" viewBox="0 0 512 512" xml:space="preserve" fill="#000000">
<g id="SVGRepo_bgCarrier" stroke-width="0"/>
<g id="SVGRepo_tracerCarrier" stroke-linecap="round" stroke-linejoin="round"/>
<g id="SVGRepo_iconCarrier"> <circle style="fill:#78a0f8;" cx="256" cy="255.999" r="255.999"/> <path style="fill:#f9858b;" d="M0.379,269.878c0.343-0.113,136.181-44.766,164.173-15.888c20.75,21.406,162.143,21.406,182.894,0 c27.993-28.879,163.83,15.775,164.173,15.888C504.411,404.808,392.726,512,256,512S7.59,404.808,0.382,269.878H0.379z"/> <path style="fill:#EEF3F7;" d="M255.999,91.647c-27.272,0.242-94.654-25.566-113.558,1.374 c-20.638,29.414-17.199,93.555-2.948,115.617c14.251,22.06,25.063,37.176,25.063,45.349c0,8.171-1.967,141.762-0.986,151.974 c0.984,10.214,4.425,17.567,8.848,17.567c4.422,0,18.88-24.106,25.761-41.669c6.881-17.567,43.353-99.868,59.078-99.868 c31.069,0,79.745,141.538,82.331,141.538c4.422,0,7.862-7.353,8.845-17.567c0.984-10.214-0.984-143.803-0.984-151.974 s10.81-23.287,25.063-45.349c14.251-22.062,17.689-86.202-2.951-115.617c-18.904-26.941-76.951,1.726-113.558-1.374 C256.002,91.647,255.999,91.647,255.999,91.647z"/> <g> <path style="fill:#FFFFFF;" d="M236.884,89.534c-27.326-2.644-65.163-0.722-79.69,7.756c-14.527,8.477-27.048,78.464-6.408,109.923 s26.534,40.853,22.112,68.634c-4.422,27.781-7.358,132.362-0.488,147.686c-4.422,0-7.862-7.355-8.845-17.567 c-0.984-10.214,0.984-143.806,0.984-151.976c0-8.171-10.812-23.287-25.063-45.349c-14.251-22.06-17.689-86.2,2.951-115.617 c15.339-21.86,62.595-8.991,94.444-3.491L236.884,89.534z"/> <path style="fill:#FFFFFF;" d="M339.586,423.531c-17.215-40.573-45.449-150.681-82.843-141.509 C280.951,282.023,328.116,425.532,339.586,423.531z"/> </g> <g> <path style="fill:#D9DADA;" d="M348.168,316.294c-0.343-30.912-0.722-58.716-0.722-62.304c0-8.171,10.81-23.287,25.063-45.349 c7.859-12.163,12.425-37.12,11.484-61.998c-1.608,40.698-41.632,90.84-44.706,97.757s8.616,46.516,8.879,71.87v0.024H348.168z"/> <path style="fill:#D9DADA;" d="M257.819,100.026c-18.062,0.593-37.47-9.655-47.846-3.735c0,0,25.173,5.458,39.775,10.443 c26.065,8.898,51.856-16.115,68.791-12.522c-14.485-7.462-43.264,5.244-60.72,5.818V100.026z"/> </g> <path style="fill:#cf2020;" d="M213.184,182.876c-22.345-17.008-45.593,12.698-34.052,50.789 c11.541,38.091-11.706,149.472-8.315,180.355c0,0,1.223,5.922,5.482,1.123c4.257-4.798,46.227-148.003,79.703-149.734 c33.474,1.732,75.445,144.937,79.703,149.734c4.257,4.798,5.482-1.123,5.482-1.123c3.391-30.883-19.856-142.264-8.315-180.355 c11.541-38.091-11.704-67.794-34.052-50.789C271.094,203.972,240.906,203.975,213.184,182.876z"/> <path style="fill:#03a095;" d="M256.122,213.413c-13.351,0.152-44.772-14.038-57.588-3.333 c-14.707,10.831,14.24,33.924-11.279,109.704c-1.194,11.142-11.481,56.77-6.009,57.397c6.051-1.21,12.034-32.234,18.812-48.048 c6.93-16.173,17.981-50.91,27.681-65.656c5.047-7.675,16.011-11.993,28.38-11.693c12.373-0.296,23.337,4.018,28.383,11.693 c9.697,14.744,20.748,49.483,27.681,65.656c6.778,15.814,12.764,46.839,18.812,48.048c5.474-0.627-4.814-46.256-6.006-57.397 c-25.519-75.784,3.425-98.874-11.282-109.704c-12.813-10.704-44.234,3.486-57.588,3.333H256.122z"/> </g>
</svg>