<!DOCTYPE svg PUBLIC "-//W3C//DTD SVG 1.1//EN" "http://www.w3.org/Graphics/SVG/1.1/DTD/svg11.dtd">
<!-- Uploaded to: SVG Repo, www.svgrepo.com, Transformed by: SVG Repo Mixer Tools -->
<svg version="1.1" id="Layer_1" xmlns="http://www.w3.org/2000/svg" xmlns:xlink="http://www.w3.org/1999/xlink" viewBox="0 0 511.988 511.988" xml:space="preserve" width="100px" height="100px" fill="#000000">
<g id="SVGRepo_bgCarrier" stroke-width="0"/>
<g id="SVGRepo_tracerCarrier" stroke-linecap="round" stroke-linejoin="round"/>
<g id="SVGRepo_iconCarrier"> <path style="fill:#000000;" d="M303.351,350.632c20.047-15.234,33.172-39.141,33.734-66.14h-92.74l-74.295-26.437 c-2.336,7.797-3.602,16.047-3.602,24.593c0,15.452,4.102,29.937,11.281,42.437l-0.438,0.25l73.732,85.311l-123.028,42.671v42.671 h299.839L303.351,350.632z"/> <g> <rect x="255.994" y="165.323" style="fill:#000000;" width="43.576" height="21.328"/> <path style="fill:#000000;" d="M245.322,47.998H210.12c2.07,3.328,3.203,6.922,3.203,10.656c0,3.75-1.133,7.343-3.203,10.671 h35.202v19.328v65.998v21.344v94.029h21.336V154.651V88.653V69.326C266.658,57.545,257.103,47.998,245.322,47.998z"/> </g> <path style="fill:#4e4f50;" d="M405.318,197.323c0,11.78-9.547,21.326-21.328,21.326h-74.67c-11.781,0-21.328-9.546-21.328-21.326 v-42.672c0-11.781,9.547-21.327,21.328-21.327h74.67c11.781,0,21.328,9.546,21.328,21.327V197.323L405.318,197.323z"/> <path style="fill:#78a0f8;" d="M505.519,327.46c-4-5.281-9.406-9.156-15.625-11.234L328.46,262.431l-3.281-1.094h-3.469 l-115.278,0.031L55.983,90.825c-6.078-6.891-14.82-10.828-23.984-10.828C14.351,79.997,0,94.341,0,111.997 c0,7.796,2.843,15.312,8.015,21.171l163.168,184.979l6.367,7.219h9.632l127.622-0.016l155.059,51.654 c3.266,1.094,6.672,1.641,10.125,1.641c17.641,0,32-14.343,32-31.998C511.988,339.71,509.738,333.069,505.519,327.46z"/> <path style="opacity:0.2;fill:#050df5;enable-background:new ;" d="M31.999,101.325c9.164,0,17.906,3.953,23.984,10.844 l150.449,170.526l115.278-0.016h3.469l3.281,1.094l161.434,53.78c6.219,2.078,11.625,5.969,15.625,11.234 c2,2.656,3.531,5.531,4.625,8.562c1.188-3.343,1.844-6.952,1.844-10.702c0-6.938-2.25-13.578-6.469-19.188 c-4-5.281-9.406-9.156-15.625-11.234L328.46,262.43l-3.281-1.094h-3.469l-115.278,0.031L55.983,90.825 c-6.078-6.891-14.82-10.828-23.984-10.828C14.351,79.997,0,94.341,0,111.997c0,3.656,0.632,7.249,1.835,10.655 C6.242,110.247,18.094,101.325,31.999,101.325z"/> <g> <path style="fill:#000000;" d="M341.32,175.995L341.32,175.995c0-5.891-4.766-10.672-10.672-10.672 c-5.875,0-10.656,4.781-10.656,10.672l0,0v42.654l0,0c0,5.891,4.781,10.672,10.656,10.672c5.906,0,10.672-4.781,10.672-10.672l0,0 V175.995z"/> <path style="fill:#000000;" d="M373.318,175.995c0-5.891-4.766-10.672-10.672-10.672c-5.875,0-10.654,4.781-10.654,10.672v0.016 v42.639l0,0c0,5.891,4.779,10.672,10.654,10.672c5.906,0,10.688-4.781,10.688-10.672v-42.654h-0.016V175.995z"/> </g> <polygon style="fill:#4e4f50;" points="331.164,383.114 127.997,453.316 127.997,495.987 427.834,495.987 "/> <path style="fill:#000000;" d="M213.323,58.654c0,17.687-14.32,31.999-32,31.999c-17.671,0-31.999-14.312-31.999-31.999 c0-17.672,14.328-32,31.999-32C199.003,26.655,213.323,40.982,213.323,58.654z"/> <path style="fill:#000000;" d="M181.324,101.325c-23.522,0-42.663-19.14-42.663-42.67C138.661,35.14,157.802,16,181.324,16 c23.531,0,42.671,19.14,42.671,42.655C223.994,82.184,204.854,101.325,181.324,101.325z M181.324,37.326 c-11.757,0-21.328,9.578-21.328,21.328c0,11.765,9.57,21.343,21.328,21.343c11.766,0,21.335-9.578,21.335-21.343 C202.659,46.904,193.089,37.326,181.324,37.326z"/> </g>
</svg>