<!DOCTYPE svg PUBLIC "-//W3C//DTD SVG 1.1//EN" "http://www.w3.org/Graphics/SVG/1.1/DTD/svg11.dtd">

<!-- Uploaded to: SVG Repo, www.svgrepo.com, Transformed by: SVG Repo Mixer Tools -->
<svg version="1.1" id="Layer_1" xmlns="http://www.w3.org/2000/svg" xmlns:xlink="http://www.w3.org/1999/xlink" viewBox="0 0 508 508" xml:space="preserve" width="100px" height="100px" fill="#000000">

<g id="SVGRepo_bgCarrier" stroke-width="0"/>

<g id="SVGRepo_tracerCarrier" stroke-linecap="round" stroke-linejoin="round" stroke="#CCCCCC" stroke-width="3.048"/>

<g id="SVGRepo_iconCarrier"> <path style="fill:#FFCDD2;" d="M10.2,12c0-0.4,0-1.2,0-1.6C10.2,10.8,10.2,11.6,10.2,12z"/> <g> <path style="fill:#78a0f8fc;" d="M160.2,161.6c0.4-0.4,0.8-0.8,1.6-1.2l-50-50c-2.4-2.4-6-2.4-8.4,0c0,0-0.4,0.8-0.4,1.2 c-8,8.4-19.2,13.6-30.8,13.6l0,0c-12,0-24-5.6-32-13.6c-8.8-8.8-14-20.4-14-31.6V12c0-3.2-2.8-6-6-6s-6,2.8-6,6v68 c0,14,6.4,28.8,17.6,40c10.4,10.4,25.2,16.8,40,16.8l0,0c12.4,0,24.8-4.8,34.4-12.4c0.8-0.8,2-0.8,2.8,0l44.8,44.4 c0.4-0.4,0.8-1.2,1.2-1.6L160.2,161.6z"/> <rect x="385.682" y="260.636" transform="matrix(-0.7069 0.7073 -0.7073 -0.7069 951.0042 403.592)" style="fill:#78a0f8fc;" width="12.4" height="276.397"/> </g> <path style="fill:#FFCC80;" d="M297.4,292L297.4,292c2.8-5.2,2-11.6-2.8-16.4L183,164c-5.2-5.2-14.8-5.2-20,0l-6,6 c-5.6,5.6-5.6,14.4,0,20l111.6,111.6c4.8,4.8,11.2,5.6,16.4,2.8c0,0,0-0.4,0.4-0.4L297.4,292z"/> <g> <path style="fill:#FFCDD2;" d="M288.6,304.4l1.2,1.2l8.8-8.8l-1.2-1.2c0,0,0,0-0.4-0.4L288.6,304.4 C288.2,304.4,288.2,304.4,288.6,304.4z"/> <path style="fill:#FFCDD2;" d="M287,304c0.4,0,0.8,0,1.2,0.4l8.8-8.8c-0.4-0.8-0.4-1.6,0-2.4c0.4-0.4,0.4-0.8,0.4-1.2l0,0l-12,12 l-0.4,0.4c0.4,0,0.4-0.4,0.8-0.4C286.2,304,286.6,304,287,304z"/> </g> <path d="M153,175.6c-1.2,0-2-0.4-2.8-1.2l-43.6-43.6c-10.4,7.2-22.4,10.8-35.2,10.8l0,0c-16.8,0-32.8-6.4-44.4-18 C14.6,111.2,7.4,95.6,7.4,80V12c0-6.8,5.6-12,12-12c3.2,0,6.4,1.2,8.4,3.6s3.6,5.2,3.6,8.4v68c0,9.2,4.4,18.4,12.4,26.4 c6.8,6.8,17.6,10.8,28,10.8l0,0c10,0,19.6-4,26.8-11.2c0,0,0,0,0.4-0.4l0,0l0,0c4.8-4.8,12.4-4.8,17.2,0l51.2,51.2 c1.6,1.6,1.6,4,0,5.6s-4,1.6-5.6,0l-51.2-51.2c-1.6-1.6-4-1.6-5.6,0l-0.4,0.4l0,0c-8.4,8.8-20,13.6-32.4,13.6l0,0 c-12.8,0-25.2-4.8-33.6-13.2c-9.6-9.6-14.8-20.8-14.8-32V12c0-1.2-0.4-2-1.2-2.8S21,8,19.8,8c-2.4,0-4,2-4,4v68 c0,13.6,6,26.8,17.2,38c10,10,24,15.6,38.4,15.6l0,0c12,0,24-4,33.2-11.2c1.6-1.2,4-1.2,5.2,0.4l46,46c1.6,1.6,1.6,4,0,5.6 C155,175.2,153.8,175.6,153,175.6z"/> <path d="M286.6,309.6c-1.2,0-2-0.4-2.8-1.2c-1.6-1.6-1.6-4,0-5.6l12-12c1.6-1.6,4-1.6,5.6,0s1.6,4,0,5.6l-12,12 C289,309.2,287.8,309.6,286.6,309.6z"/> <path d="M485,508c-1.2,0-2-0.4-2.8-1.2l-196-196c-7.2,3.2-15.6,1.6-22-4.8L152.6,194.4c-3.6-3.6-6-8.8-6-14.4c0-5.2,2-10.4,6-14.4 l6-6c8-8,20.8-8,28.4,0l111.6,111.6c6,6,7.6,14.8,4.8,22l196,196c1.6,1.6,1.6,4,0,5.6l-11.6,11.6C487.4,507.6,486.2,508,485,508z M287,302c1.2,0,2,0.4,2.8,1.2L485,498.4l6-6L295.8,297.2c-1.2-1.2-1.6-3.6-0.4-5.2c3.2-4.8,2.4-10.4-2-14.8L181.8,165.6 c-4.8-4.8-12.4-4.8-17.2,0l0,0l-6,6c-2.4,2.4-3.6,5.2-3.6,8.4c0,3.2,1.2,6.4,3.6,8.4L270.2,300c4.4,4.4,10,5.2,14.8,2 C285.4,302,286.2,302,287,302z"/> </g>

</svg>