<!DOCTYPE svg PUBLIC "-//W3C//DTD SVG 1.1//EN" "http://www.w3.org/Graphics/SVG/1.1/DTD/svg11.dtd">

<!-- Uploaded to: SVG Repo, www.svgrepo.com, Transformed by: SVG Repo Mixer Tools -->
<svg height="100px" width="100px" version="1.1" id="Layer_1" xmlns="http://www.w3.org/2000/svg" xmlns:xlink="http://www.w3.org/1999/xlink" viewBox="0 0 512.332 512.332" xml:space="preserve" fill="#78a0f8fc" stroke="#78a0f8fc" stroke-width="13.320632">

<g id="SVGRepo_bgCarrier" stroke-width="0"/>

<g id="SVGRepo_tracerCarrier" stroke-linecap="round" stroke-linejoin="round"/>

<g id="SVGRepo_iconCarrier"> <path style="fill:#141414;" d="M125.6,55.063L125.6,55.063c-65.324,64.441-72.386,165.076-21.186,236.579l75.917,106.814 l75.917,113.876l78.566-117.407l70.621-99.752c53.848-72.386,47.669-175.669-18.538-240.993l0,0 C314.51-18.206,197.986-18.206,125.6,55.063"/> <path style="fill:#78a0f8fc;" d="M397.49,185.711c0-77.683-63.559-141.241-141.241-141.241s-141.241,63.559-141.241,141.241 s63.559,141.241,141.241,141.241S397.49,263.394,397.49,185.711"/> <g> <polygon style="fill:#141414;" points="256.248,88.607 159.145,185.711 185.628,212.194 256.248,141.573 256.248,141.573 256.248,141.573 326.869,212.194 353.352,185.711 "/> <polygon style="fill:#141414;" points="256.248,141.573 203.283,194.538 203.283,256.332 309.214,256.332 309.214,194.538 "/> </g> </g>

</svg>